<?xml version="1.0" encoding="UTF-8"?>
<svg width="256" height="256" version="1.1" viewBox="0 0 256 256" xmlns="http://www.w3.org/2000/svg">
 <g>
  <path d="m41.6 52.8v150h27.8c15.3 0 27.8-12.4 27.8-27.8v-94.8c0-15.3-12.4-27.8-27.8-27.8z" fill="#800000"/>
  <path d="m7.1 3c-2.21 0-4 1.79-4 4.08 0 2.28 1.79 4.26 3.99 4.26 18.8-2e-3 33.8 14.8 34.5 33.3h100c23.1 0 41.8 18.7 41.8 41.7 2e-5 11.5-4.7 21.9-12.2 29.5-6.7 6.81-6.59 17.6 0.119 24.4 7.55 7.55 12.2 18 12.2 29.5-4e-5 23-18.7 41.7-41.7 41.7h-100c-0.667 18.5-16.1 33.3-34.8 33.3-2.21 0-3.99 1.98-3.99 4.26 0 2.28 1.79 4.08 4 4.08h121c69 0 125-56 125-125 0-69-56-125-125-125z" fill="#f60"/>
 </g>
</svg>
